<?xml version="1.0" encoding="UTF-8"?>
<svg width="500px" height="500px" viewBox="0 0 500 500" version="1.1" xmlns="http://www.w3.org/2000/svg" xmlns:xlink="http://www.w3.org/1999/xlink">
    <!-- Generator: Sketch 40.1 (33804) - http://www.bohemiancoding.com/sketch -->
    <title>red</title>
    <desc>Created with Sketch.</desc>
    <defs></defs>
    <g id="twisted-t" stroke="none" stroke-width="1" fill="none" fill-rule="evenodd">
        <g id="red">
            <g id="group" transform="translate(77.000000, 30.000000)">
                <path d="M267.317811,0 L345.296337,43.1711879 L345.296337,137.055518 L267.317811,93.9957877 L267.317811,0 Z M339.28085,146.380792 L261.970712,189.068997 L261.042397,188.548863 L184.474911,146.343639 L261.747917,103.618281 L339.28085,146.380792 Z M83.845481,287.337321 L6.12688413,244.797725 L78.7583106,204.673041 L79.1296369,207.385173 C81.5061253,224.438163 88.3013968,245.577928 101.149287,275.894356 L101.817674,277.45476 L83.845481,287.337321 Z M89.3782431,397.94027 L89.3782431,396.75139 C90.8635483,374.459899 104.231296,340.353917 115.371085,315.610362 L117.079186,311.895114 L121.757897,322.037742 C135.496971,351.75973 161.118486,407.228391 165.871463,436.653159 L166.502718,440.368408 L89.3782431,397.94027 Z M256.178022,396.714238 L256.178022,397.903117 L177.82817,441 L177.456844,438.287869 C173.112326,407.339848 150.981278,357.444061 127.699118,308.25417 C89.0069168,226.221483 89.1925799,204.784499 89.3411104,186.059646 L89.3411104,186.059646 L0,235.249537 L0,141.662426 L256.215155,0.0743049705 L256.215155,93.8843302 L167.09684,143.037068 L167.09684,144.040185 C166.874044,155.631761 166.39132,179.818029 212.212987,276.005813 C240.693715,335.709857 254.655584,374.051222 256.178022,396.75139 L256.178022,396.714238 Z M230.18518,280.724179 L228.328549,284.736647 L226.583315,280.761331 C224.949479,277.046083 222.42446,271.510362 219.379585,264.934372 C206.04897,235.955434 183.769391,187.508593 179.721935,160.090059 L179.164945,156.37481 L256.178022,198.728644 L256.178022,199.954676 C254.32139,222.691997 241.399235,255.088964 230.18518,280.761331 L230.18518,280.724179 Z" id="Shape" fill="#AB162C"></path>
                <path d="M267.317811,0 L345.296337,43.1711879 L345.296337,137.055518 L267.317811,93.9957877 L267.317811,0 Z M339.28085,146.380792 L261.970712,189.068997 L261.042397,188.548863 L184.474911,146.343639 L261.747917,103.618281 L339.28085,146.380792 Z M83.845481,287.337321 L6.12688413,244.797725 L78.7583106,204.673041 L79.1296369,207.385173 C81.5061253,224.438163 88.3013968,245.577928 101.149287,275.894356 L101.817674,277.45476 L83.845481,287.337321 Z M89.3782431,397.94027 L89.3782431,396.75139 C90.8635483,374.459899 104.231296,340.353917 115.371085,315.610362 L117.079186,311.895114 L121.757897,322.037742 C135.496971,351.75973 161.118486,407.228391 165.871463,436.653159 L166.502718,440.368408 L89.3782431,397.94027 Z M256.178022,396.714238 L256.178022,397.903117 L177.82817,441 L177.456844,438.287869 C173.112326,407.339848 150.981278,357.444061 127.699118,308.25417 C89.0069168,226.221483 89.1925799,204.784499 89.3411104,186.059646 L89.3411104,186.059646 L0,235.249537 L0,141.662426 L256.215155,0.0743049705 L256.215155,93.8843302 L167.09684,143.037068 L167.09684,144.040185 C166.874044,155.631761 166.39132,179.818029 212.212987,276.005813 C240.693715,335.709857 254.655584,374.051222 256.178022,396.75139 L256.178022,396.714238 Z M230.18518,280.724179 L228.328549,284.736647 L226.583315,280.761331 C224.949479,277.046083 222.42446,271.510362 219.379585,264.934372 C206.04897,235.955434 183.769391,187.508593 179.721935,160.090059 L179.164945,156.37481 L256.178022,198.728644 L256.178022,199.954676 C254.32139,222.691997 241.399235,255.088964 230.18518,280.761331 L230.18518,280.724179 Z" id="Shape"></path>
            </g>
        </g>
    </g>
</svg>